<svg xmlns="http://www.w3.org/2000/svg" viewBox="0 0 64 64" width="64" height="64" role="img" aria-label="Ocean Endodontics">
  <rect width="64" height="64" rx="14" fill="#101a33"/>
  <path transform="translate(13 11) scale(1.58)" fill="#ffffff"
    d="M7.5 3.5C5.5 3.5 4 5 4 7.2c0 1.6.5 2.7.9 4.1.3 1 .5 2.4.7 3.9.2 1.7.4 3.4 1.4 4.4.9.9 1.6.2 1.9-1.2.2-1 .4-2.4.7-3.4.2-.7.6-1 1.1-1s.9.3 1.1 1c.3 1 .5 2.4.7 3.4.3 1.4 1 2.1 1.9 1.2 1-1 1.2-2.7 1.4-4.4.2-1.5.4-2.9.7-3.9.4-1.4.9-2.5.9-4.1C20 5 18.5 3.5 16.5 3.5c-1.6 0-2.6.9-3.4 1.3-.6.3-1.6.3-2.2 0-.8-.4-1.8-1.3-3.4-1.3Z"/>
  <circle cx="20" cy="46" r="2.2" fill="#0071e3"/>
  <circle cx="32" cy="49" r="2.2" fill="#5c9add"/>
  <circle cx="44" cy="46" r="2.2" fill="#0071e3"/>
</svg>
